<svg xmlns="http://www.w3.org/2000/svg" viewBox="0 0 500 399.9"><path d="M313.8,450.2,240.3,221.8c3.5-.5,5.9-1.2,8.3-1.2H380.4c10.4,0,11.2,1.7,8,11.7q-24.7,76.3-49.2,153c-6.9,21.4-13.9,42.7-20.7,64.1l-4.7.8m22.3-7.2c53.4-73.4,106.8-146.7,160.7-220.9-3.1-.9-4.2-1.6-5.4-1.6-26.9-.1-53.8-.4-80.7.3-3.3.1-8.2,5.1-9.4,8.7-18.2,54.1-36,108.5-53.9,162.7-5.2,16-10.3,32.1-15.5,48.1a37.4,37.4,0,0,0,4.2,2.7M183.6,230.1h14.9c-1-2.3-1.1-3-1.5-3.4-3-2.2-8.7-5.4-8.3-6.4,2.3-6.5,6.9-2.7,11.2-1.7s11.7,2.4,17.5,1.7c8.3-.9,11.8,2.9,14.2,10,9.3,29,18.8,57.9,28.2,86.8Q279,375.3,298,433.6c.8,2.4,1,4.9-.6,8.7-2.7-2.7-6-5-8.3-8.1-28.2-38.5-56.2-77.1-84.4-115.7-2.5-3.5-6.7-5.8-9.8-8.4,1.2-1.9,2.7-4.6,4.4-7.3l-11.8-3.7c.4-3.6,1-7.4,1.2-11.1.2-7-1.2-12.1-10.3-11.7-3,.1-6.1-3.4-9.4-5.5,11.2-11.3,10.1-15.3-3-19.3-1-4.4-2.3-8.8-3-13.2-.3-2.3-.3-5.3.9-7s5.2-2.2,5.9-1.4,2.2,4.7,2.9,7.3c.3,1-.1,2.3-.2,3.4l3,.2c0-4.7-.1-9.4,0-14,0-2.4-.4-5,.5-7s4.3-1.3,5.2-.4,2.1,4,2.7,6.2-.1,2.3-.3,4.5m199.6-21.8H249.9c.5-2.5.2-4.4,1-5.5,11.4-13,22.9-26,34.5-38.8,1.3-1.5,4.1-2.4,6.2-2.4,7-.2,13.9.7,14.9-9.6.1-1.7,7.1-2.7,10.4-3.8-.6-4.3-2.5-8.6-1.4-12s7-.5,7.8,5.2a59.3,59.3,0,0,1,.1,7.5c13.4-1.3,17.9,9.7,24.9,16.9,10.7,11,20.6,22.8,30.7,34.4,1.6,1.9,2.5,4.7,4.2,8.1m31.7.9c26.7,0,53.4.1,80.2-.2,7,0,5.7-4.6,3.2-8.8-4.6-7.8-9.2-15.8-13.9-23.6-8.4-14.1-17-28.3-27.1-45l-44.5,74.8c.8.9,1.4,1.9,2.1,2.8m-15.2-1.5-46.9-55.2,1.2-2.8h11.2c5.2,0,9.2-.4,10.3-7.5s9.1-3.7,14-4.2c2.5-.2,7.5,2.6,7.7,4.4.8,9.4,6.2,7.2,9.9,6.4,2.1-5.3,3.2-12.4,5.2-12.6,10.1-1.3,2.2,8.4,7.3,13.4,1.1-3.7,1.2-6.5,2.6-8.3s4.1-3.4,6.1-3.2,4.2,3.1,4.3,4.9c.2,3.4-.2,7.4-1.9,10.4-9.7,17.5-19.6,34.7-31,54.3M234.5,155.9c2.7-.7,6.7-2.2,8.3-1,6.2,5,12.6,4,19.2,2.3a13.7,13.7,0,0,0,6.6-3.8c.8-.9.1-4.9-.6-5.1-2.6-.7-5.7-1.2-8-.2-6.1,2.4-10.9,2.8-16-2.3-1.3-1.3-5.8.1-8.6.7-4.9,1.2-9.6,3.3-14.4,4.2-3.2.5-9.3-1.2-9.5-.6-1.5,5.6-4.5,12.7-2.4,17.1,6,12.6,14.1,24.3,21.4,36.2.6,1,2.1,1.3,3.7,2.1,2-2.4,3.8-4.4,5.7-6.5H237c-1-4.5-1.9-8.9-2.9-13.4l15.1-1.9,1.1,3.2,19.9-23.9c-7.3-3.2-10.3-2.2-12,3.9-.6,2.3-4.1,4.9-6.7,5.3s-4.8-2.2-6.6-4.1-3-4.2-4.4-6.4c-1.8,2.1-3.5,4.6-5.6,6.3s-5.1,4.8-7.4,4.5-4.8-3.5-6-6-.7-5.7-.8-6.9c5.5-1.4,9.6-2.7,13.8-3.6M197.7,209h11.7c8.7,0,9.8-1.8,5.5-9.7-6.1-10.8-12.4-21.4-18.6-32.2-3.6-6.3-9.4-6.4-15.4-5.6-1.5.2-3.8,2.7-4,4.2s1.9,4.7,3.3,4.8c6.4.5,8.6,4.1,7.9,9.9s2.7,13.4-6.9,16.2c-2.1.6-4,5.2-4.1,8.1-.1,1.3,4.3,3.7,6.9,4.1,4.4.7,9.1.2,13.7.2M157,196.3c-1.3,2.2-3.7,4.5-3.7,6.7s2.6,4.1,4.1,6.2l8.1-6.6-8.5-6.3m-21.1,5.6c-2.2.3-4,3.1-6,4.8,1.8,1.9,3.5,4.9,5.4,5.2s4.4-2.4,8.4-4.9c-3.7-2.6-5.9-5.3-7.8-5.1M70.6,150.4l-1.8,9.7,7.7.5-1-9.8-4.9-.4m59-60.2-10.5-1.8c-.1,2.7-.3,5.3-.4,8l10.6-.7.3-5.5M94.2,108.6c-.1-1.9-3.2-3.7-5.1-5.5-1.9,1.9-5.1,3.7-5.3,5.8s2.8,4.2,5.5,7.7c2.3-3.6,5.1-5.9,4.9-8m114.1,21.2-9.7-1.4-.6,7.5h9.9c.2-1.9.3-4,.4-6.1M75.1,183.6c.1,2.1,3.2,5.5,5,5.5s5.3-3,5.6-4.9-2.6-4.4-5.1-8c-2.6,3.4-5.6,5.5-5.5,7.4M199.3,63.1h-10c.2,2.4.2,4.7.3,7l9.9-1.3c-.1-2-.1-3.8-.2-5.7M147.4,50.3c-1.8-.1-3.9,3.2-5.9,5,1.9,1.8,3.5,4.3,5.8,5s4-1.8,7.4-3.4c-3.3-3.2-5.2-6.4-7.3-6.6M.3,154.1c-.2,1.2,3.8,4.9,4.4,4.6a14.1,14.1,0,0,0,6.3-5.8c.5-.6-2.8-3.4-5.2-6.2-2.4,3.1-4.9,5-5.5,7.4m251.1-25.6c-.4-2.1-3.5-3.7-5.5-5.5-1.8,1.9-4.9,3.8-5,5.9s2.9,4,5.8,7.5c2.3-3.6,5-6,4.7-7.9m-134.2-15c-.2,1.7,3.1,5.2,4.3,5.1s5.6-2.7,6-4.7-2.5-4.4-5-8.2c-2.7,3.6-5.2,5.7-5.3,7.8m187.4-7.8c-1.8.1-3.2,3.2-4.8,5,2.1,1.4,4.1,3.6,6.4,4s3.6-2.1,7.6-4.7c-4.7-2.3-7.1-4.6-9.2-4.3m80.6-4.5c.6,2.2,3.2,3.9,4.9,5.8,1.5-2,4.3-4.1,4.1-6s-2.9-4.1-5.9-8c-1.7,4.1-3.6,6.5-3.1,8.2M161.9,68.1c-1.3-.2-4.6,2.9-4.4,4.2s2.2,5.5,4,6,4.2-2.3,8.1-4.7c-3.7-2.8-5.6-5.1-7.7-5.5m11.6,117.8c.3,1.9,3.1,5.1,4.2,4.9s4.3-2.8,6.5-4.4l-6.2-7.1c-2.3,3.1-4.6,5-4.5,6.6m187.9-46.5c.1-1.3-3.1-4.6-4.4-4.4s-5.3,2.4-5.8,4.3,2.3,4.1,4.7,7.9c2.7-3.7,5.2-5.5,5.5-7.8m-77.3-11.1c.1,2,3.2,5.2,5.2,5.5s5.1-3,5.4-5-2.4-4.3-4.6-7.9c-2.9,3.3-6,5.4-6,7.4M151.2,284.1c-2-.1-3.9,2.7-5.9,4.4,2,1.5,3.8,3.9,6,4.4s4.1-1.5,8.3-3.2c-4.1-2.9-6.2-5.5-8.4-5.6m13.7-144.2a10,10,0,0,0-5.6,5.1c-.4.9,2.7,4.8,4.3,4.9s4.3-2.4,8-4.7c-3.3-2.7-5.4-5.6-6.7-5.3m-47.4-.5a9.5,9.5,0,0,0-5.4,5.7c-.3,1,3.3,4.8,4.8,4.6s4.1-2.9,7.5-5.6c-3.3-2.3-5.8-5.2-6.9-4.7m32.2,78a9.3,9.3,0,0,0-4.7,5.8c-.2,1.2,3.3,4.8,4.4,4.5s3.9-3.1,7-5.8c-3.1-2.2-5.7-5-6.7-4.5m69.9-99.8c-2,.1-3.8,2.6-5.7,4.1,1.7,1.9,3.2,4.7,5.4,5.4s3.8-2.3,7.3-4.7c-3.3-2.4-5.2-4.9-7-4.8M190.3,99.8,200.5,97c-.7-2.1-1.6-4.2-2.3-6.3l-9.5,3.9c.5,1.8,1,3.5,1.6,5.2m-48.8-4.6,9.8,4c.5-2.5,1.1-4.9,1.6-7.4l-10.3-.9Zm-3.8,161.6c-1.2-.2-4.3,3-4.4,4.8s2.4,5.6,3.6,5.6,4.6-2.3,8.4-4.5c-3.5-3-5.4-5.5-7.6-5.9m4.3-93.9c.7,2.2,3.4,5,5.3,5.2s5.3-3.3,5.2-4.9-3.1-4-6-7.1c-2.1,3.1-4.8,5.5-4.5,6.8" transform="translate(-0.3 -50.3)"/></svg>